<svg width="314" height="86" viewBox="0 0 314 86" fill="none" xmlns="http://www.w3.org/2000/svg">
<path d="M311.5 43C311.5 47.6182 308.052 52.6213 300.303 57.6391C292.664 62.586 281.444 67.1358 267.355 70.9944C239.215 78.7018 200.197 83.5 157 83.5C113.803 83.5 74.7854 78.7018 46.6446 70.9944C32.5564 67.1358 21.3362 62.586 13.6967 57.6391C5.94759 52.6213 2.5 47.6182 2.5 43C2.5 38.3818 5.94759 33.3787 13.6967 28.3609C21.3362 23.414 32.5564 18.8642 46.6446 15.0056C74.7854 7.29825 113.803 2.5 157 2.5C200.197 2.5 239.215 7.29825 267.355 15.0056C281.444 18.8642 292.664 23.414 300.303 28.3609C308.052 33.3787 311.5 38.3818 311.5 43Z" stroke="#F27C47" stroke-width="5"/>
</svg>
