<svg width="238" height="88" viewBox="0 0 238 88" fill="none" xmlns="http://www.w3.org/2000/svg">
<path id="Ellipse 615" d="M235.5 44C235.5 49.0893 232.719 54.2478 227.003 59.2446C221.292 64.2368 212.884 68.8465 202.279 72.7679C181.087 80.6035 151.644 85.5 119 85.5C86.3561 85.5 56.9131 80.6035 35.7213 72.7679C25.1157 68.8465 16.7078 64.2368 10.997 59.2446C5.28106 54.2478 2.5 49.0893 2.5 44C2.5 38.9107 5.28106 33.7522 10.997 28.7554C16.7078 23.7632 25.1157 19.1536 35.7213 15.2321C56.9131 7.39652 86.3561 2.5 119 2.5C151.644 2.5 181.087 7.39652 202.279 15.2321C212.884 19.1536 221.292 23.7632 227.003 28.7554C232.719 33.7522 235.5 38.9107 235.5 44Z" stroke="#F27C47" stroke-width="5"/>
</svg>
