<svg width="154" height="40" viewBox="0 0 154 40" fill="none" xmlns="http://www.w3.org/2000/svg">
<g id="Group 463869">
<g id="Group 463868">
<path id="Vector" d="M57.8623 19.9417C57.2995 19.6086 56.7012 19.3397 56.0785 19.14C55.4304 18.9296 54.7753 18.7525 54.1131 18.6085C53.451 18.4646 52.8472 18.3232 52.3017 18.1845C51.829 18.0744 51.3832 17.8707 50.9907 17.5854C50.832 17.4688 50.7039 17.3153 50.6175 17.1383C50.5311 16.9612 50.4889 16.7659 50.4946 16.569C50.4928 16.2423 50.5999 15.9244 50.7991 15.6655C51.0029 15.3942 51.3217 15.1805 51.7591 15.0222C52.1965 14.8638 52.7756 14.7841 53.4986 14.7841C54.2316 14.7897 54.9606 14.8925 55.6666 15.0897C56.4335 15.2984 57.1701 15.6059 57.8579 16.0043L59.0105 13.2483C58.2237 12.77 57.366 12.4195 56.4694 12.2097C55.5049 11.9692 54.5147 11.8477 53.5208 11.8477C52.0304 11.8477 50.7917 12.0691 49.8048 12.512C48.8179 12.9549 48.0852 13.5491 47.6069 14.2947C47.1279 15.0302 46.8764 15.8906 46.8839 16.7683C46.8839 17.5965 47.0459 18.2852 47.37 18.8344C47.6901 19.3787 48.1402 19.8352 48.6798 20.1631C49.2455 20.5091 49.8527 20.7822 50.4869 20.9759C51.1424 21.1796 51.7938 21.3531 52.4412 21.4963C53.0886 21.6395 53.6872 21.7901 54.2371 21.948C54.7106 22.0703 55.1581 22.2769 55.5581 22.5581C55.717 22.6719 55.8454 22.823 55.9321 22.9982C56.0188 23.1733 56.0611 23.3671 56.0553 23.5624C56.06 23.8815 55.9473 24.1913 55.7386 24.4327C55.5282 24.6807 55.2005 24.8811 54.7564 25.0306C54.3124 25.1801 53.7289 25.2521 53.0059 25.2521C52.046 25.2505 51.0926 25.0942 50.1824 24.7892C49.3273 24.5208 48.5192 24.1207 47.7874 23.6034L46.5439 26.3726C47.2511 26.9152 48.1886 27.3558 49.3564 27.6947C50.5423 28.0361 51.7707 28.2072 53.0048 28.2029C54.4951 28.2029 55.7375 27.977 56.7318 27.5253C57.7261 27.0735 58.468 26.4785 58.9574 25.7404C59.4405 25.0202 59.6963 24.1716 59.6915 23.3044C59.6915 22.4924 59.5221 21.8107 59.1832 21.2593C58.8571 20.7189 58.4036 20.2665 57.8623 19.9417Z" fill="white"/>
<path id="Vector_2" d="M78.3056 14.1524C77.5118 13.4089 76.579 12.8294 75.5607 12.4473C74.4606 12.0392 73.2949 11.8362 72.1216 11.8482C70.9454 11.8352 69.7771 12.0421 68.6769 12.4583C67.6588 12.8464 66.7264 13.4298 65.9321 14.1757C65.1552 14.9042 64.5364 15.7846 64.1139 16.7622C63.2547 18.8493 63.2547 21.1913 64.1139 23.2784C64.5342 24.2605 65.1533 25.1449 65.9321 25.876C66.7293 26.6235 67.6657 27.207 68.688 27.5934C70.9086 28.403 73.3431 28.4069 75.5663 27.6045C76.5847 27.2227 77.5176 26.6432 78.3111 25.8993C79.0914 25.1646 79.7105 24.2759 80.1293 23.2895C80.987 21.1941 80.987 18.8455 80.1293 16.75C79.7064 15.768 79.0856 14.8838 78.3056 14.1524ZM76.6901 22.0704C76.4487 22.6687 76.0916 23.2135 75.6393 23.6737C75.193 24.13 74.6589 24.4912 74.0693 24.7356C73.4496 24.9888 72.7855 25.1157 72.1161 25.1087C71.4428 25.115 70.7748 24.9882 70.1507 24.7356C69.5583 24.495 69.0228 24.1334 68.5784 23.6737C68.132 23.2113 67.7793 22.6668 67.5398 22.0704C67.0422 20.7528 67.0422 19.2989 67.5398 17.9813C67.7793 17.3849 68.132 16.8405 68.5784 16.378C69.0221 15.9186 69.5569 15.5569 70.1485 15.3162C70.7749 15.0621 71.4456 14.9352 72.1216 14.943C72.7911 14.9355 73.4553 15.0623 74.0748 15.3162C74.6645 15.5605 75.1985 15.9217 75.6449 16.378C76.0971 16.8382 76.4542 17.383 76.6957 17.9813C77.1932 19.2989 77.1932 20.7528 76.6957 22.0704H76.6901Z" fill="white"/>
<path id="Vector_3" d="M101.976 23.2661L98.363 12.0696H94.9748L91.2466 23.1842L87.6791 12.0696H83.8845L89.0798 27.8812H92.9873L96.5737 17.1629L100.08 27.8812H103.966L109.161 12.0696H105.66L101.976 23.2661Z" fill="white"/>
<path id="Vector_4" d="M111.714 15.0514H116.773V27.8812H120.433V15.0514H125.493V12.0696H111.714V15.0514Z" fill="white"/>
<path id="Vector_5" d="M133.4 12.0696H129.718V27.8823H133.4V12.0696Z" fill="white"/>
<path id="Vector_6" d="M149.336 24.6209C148.656 24.9472 147.91 25.1135 147.155 25.107C146.46 25.1147 145.77 24.988 145.123 24.7338C144.52 24.4978 143.974 24.1399 143.516 23.6826C143.059 23.2254 142.701 22.6785 142.465 22.0764C141.968 20.7512 141.968 19.2905 142.465 17.9652C142.701 17.3631 143.059 16.8163 143.516 16.359C143.974 15.9017 144.52 15.5438 145.123 15.3078C145.77 15.0532 146.46 14.9264 147.155 14.9346C147.909 14.9282 148.654 15.0905 149.336 15.4097C150.028 15.7428 150.64 16.2204 151.132 16.8103L153.504 14.6479C152.755 13.733 151.794 13.0156 150.703 12.5585C148.421 11.6505 145.885 11.6111 143.576 12.4478C142.56 12.828 141.631 13.4078 140.843 14.1529C140.07 14.887 139.456 15.7709 139.036 16.7505C138.177 18.8499 138.177 21.2028 139.036 23.3022C139.457 24.2887 140.075 25.179 140.852 25.9187C141.628 26.6585 142.548 27.2323 143.554 27.605C144.64 28.0111 145.793 28.2141 146.953 28.204C148.339 28.204 149.589 27.963 150.703 27.4809C151.793 27.0164 152.754 26.2945 153.504 25.3772L151.133 23.2092C150.639 23.8002 150.027 24.2811 149.336 24.6209Z" fill="white"/>
</g>
<g id="Group 463867">
<path id="Vector_7" d="M29.5836 23.8469L12.5164 14.4928L17.499 11.9229L30.0796 18.6738L30.0985 11.9451L17.4614 5.21405L5.358 11.7435L0 9.41497L17.4802 0L34.636 9.5866V21.0212L29.5836 23.8469Z" fill="white"/>
<path id="Vector_8" d="M5.70499 16.1528L22.7722 25.5069L17.7896 28.0757L5.20894 21.3259L5.19012 28.0547L17.8272 34.7846L29.9306 28.2562L35.2886 30.5848L17.8084 39.9998L0.652588 30.4131V18.9785L5.70499 16.1528Z" fill="white"/>
</g>
</g>
</svg>
